<svg version="1.1" viewBox="0 0 293.22 256.07" xmlns="http://www.w3.org/2000/svg">
 <g transform="translate(-92.811 -111.27)">
  <path d="m370.63 247.06c6.442-4.7979 7.8988-9.2057 9.961-15.155 3.4363-9.9133-2.7305-19.981-11.746-25.485m0 0c-17.282-70.13-70.917-84.811-130.35-90.642-64.731 2.6992-111.64 27.423-127.41 90.642m0 0c-19.698 14.951-15.846 30.526-3.4738 40.141m106.01 50.439c64.216 4.8992 104.61-7.7735 150.97-16.051m0 0c18.967-17.334 10.262-24.812 6.0446-33.888-3.2234-6.9368-17.147 9.6483-23.58 10.641-14.872 2.2956-25.058-20.127-39.21-15.013-9.7228 3.5137-5.2407 22.457-16.731 26.115-17.749 5.65-48.28-12.032-48.28-12.032-15.107-5.2087-35.766 22.37-48.888 6.7198-23.551-37.747-34.329-9.2873-60.215-7.5439-9.6189-0.49649-19.203-4.0094-26.122-9.3867-5.5849 11.576-8.0508 22.798 5.8526 32.158-7.0161 42.895 16.82 57.571 40.932 71.993 72.089 22.01 102.74 8.5613 164.69 2.9382 39.288-17.605 54.725-42.044 45.504-72.702zm4.26-74.529c-70.705 14.356-137.79 39.43-257.77 0zm-255.39 72.299c39.574 10.658 72.136 16.143 100.16 18.281l73.237 38.735 77.729-54.786" fill="none" stroke="#050505" stroke-linecap="round" stroke-linejoin="round" stroke-width="9"/>
  <g fill="#050505">
   <path d="m153.76 156.41c4.5486-2.3824 5.9488-1.8251 7.3164-0.94668 1.3517 1.2318 2.4714 2.7642 2.8232 4.2469-2.057 0.97015-3.0705 2.0479-5.7034 1.7345-3.6185-1.1026-4.9264-2.4798-4.4361-5.0347z"/>
   <path d="m148.74 173.62c4.5486-2.3824 5.9488-1.8251 7.3164-0.94668 1.3517 1.2318 2.4714 2.7642 2.8232 4.2469-2.057 0.97015-3.0705 2.0479-5.7034 1.7345-3.6185-1.1026-4.9264-2.4798-4.4361-5.0347z"/>
   <path d="m201.2 135.68c4.5486-2.3824 5.9488-1.8251 7.3164-0.94668 1.3517 1.2318 2.4714 2.7642 2.8232 4.2469-2.057 0.97015-3.0705 2.0479-5.7034 1.7345-3.6185-1.1026-4.9264-2.4798-4.4361-5.0347z"/>
   <path d="m230.21 145.64c4.5486-2.3824 5.9488-1.8251 7.3164-0.94668 1.3517 1.2318 2.4714 2.7642 2.8232 4.2469-2.057 0.97015-3.0705 2.0479-5.7034 1.7345-3.6185-1.1026-4.9264-2.4798-4.4361-5.0347z"/>
   <path d="m282.78 151.03c4.5486-2.3824 5.9488-1.8251 7.3164-0.94668 1.3517 1.2318 2.4714 2.7642 2.8232 4.2469-2.057 0.97015-3.0705 2.0479-5.7034 1.7345-3.6185-1.1026-4.9264-2.4798-4.4361-5.0347z"/>
   <path d="m271.1 163.44c-1.5318 4.9009-2.9159 5.497-4.504 5.8429-1.8268 0.0847-3.7021-0.20702-4.9993-1.0067 0.76854-2.1405 0.72304-3.6193 2.8064-5.2594 3.3383-1.779 5.237-1.73 6.6969 0.42328z"/>
   <path d="m225.26 174.93c-4.9009-1.5318-5.497-2.9159-5.8429-4.504-0.0847-1.8268 0.20702-3.7021 1.0067-4.9993 2.1405 0.76854 3.6193 0.72304 5.2594 2.8064 1.779 3.3383 1.73 5.237-0.42328 6.6969z"/>
   <path d="m301.49 178.64c-1.5318 4.9009-2.9159 5.497-4.504 5.8429-1.8268 0.0847-3.7021-0.20702-4.9993-1.0067 0.76854-2.1405 0.72304-3.6193 2.8064-5.2594 3.3383-1.779 5.237-1.73 6.6969 0.42328z"/>
   <path d="m316.81 168.1c-1.1239-5.0102-0.22322-6.2184 0.97919-7.3121 1.5397-0.98675 3.3096-1.6718 4.8328-1.6278 0.4047 2.238 1.1835 3.4959 0.19928 5.958-2.0015 3.2098-3.6703 4.1167-6.0113 2.9819z"/>
   <path d="m342.02 187.92c-4.5486 2.3823-5.9488 1.8251-7.3164 0.94668-1.3516-1.2318-2.4714-2.7642-2.8232-4.2469 2.057-0.97015 3.0705-2.0479 5.7034-1.7345 3.6185 1.1026 4.9264 2.4798 4.4361 5.0347z"/>
   <path d="m262.78 181.2c-3.2838 3.9474-4.7906 3.971-6.3907 3.6856-1.7212-0.61794-3.3439-1.6022-4.2384-2.8358 1.5262-1.6862 2.0477-3.0706 4.5989-3.7931 3.7644-0.37268 5.5011 0.3962 6.0303 2.9433z"/>
   <path d="m247.62 135.88c-5.1133 0.46923-6.1954-0.57958-7.1251-1.9128-0.78012-1.654-1.2316-3.4974-0.9918-5.0022 2.2715-0.11311 3.6192-0.72333 5.934 0.56976 2.9253 2.3983 3.6097 4.17 2.1828 6.3453z"/>
   <path d="m197.03 170.25c-4.739 1.9768-6.0852 1.2996-7.371 0.30541-1.2392-1.3449-2.2211-2.969-2.4423-4.4768 2.1338-0.78718 3.2373-1.7725 5.8329-1.2308 3.5086 1.4137 4.6915 2.8997 3.9804 5.4022z"/>
  </g>
 </g>
</svg>
