<svg version="1.1" viewBox="0 0 512 512" xmlns="http://www.w3.org/2000/svg">
    <g fill="none" stroke="#050505" stroke-linecap="round" stroke-linejoin="round">
        <g stroke-width="18">
            <path d="m188.73 192.69-127.83 0.0568c-7.7849 48.374-0.72472 91.56 14.743 140.15m330.47-140.49c30.4 0 89.235-1.5202 96.145 73.142-3.8888 59.069-43.802 81.345-110.08 70.967-16.546 30.999-34.75 55.851-54.275 75.807m-329.58 0c8.9762 25.547 9.36 52.431 88.88 49.416 6.7733 17.399 12.009 35.683 40.552 40.555h196.15c24.615-7.7476 38.604-19.45 38.182-40.728 46.502 4.8167 79.537-3.6076 88.75-43.58 2.0174-8.7529-21.906-4.2161-64.219-4.3955zm270.4-219.68 127.39-0.23722c0.29638 10.92 1.1069 29.042 1.5761 43.928m-3.6573 58.7c-2.6888 15.758-7.0932 24.71-11.856 41.481m15.513-100.18c0.2463 7.813-2.897 54.243-3.6573 58.7 19.608-3.2241 54.033 10.496 54.033-32.044 0-26.014-25.829-32.626-50.375-26.656"/>
            <path d="m76.9 331.2c18.116-10.889 36.254-21.64 58.881-3.5066 19.209 19.414 10.679 38.795 3.1691 58.661-16.56 22.25-32.068 29.955-52.374 27.576-45.003-20.881-39.793-54.412-9.676-82.73z"/>
            <path d="m71.888 403.19c3.7834-20.325 13.2-31.529 26.875-35.838 24.64-7.8815 26.383-23.061 34.197-36.305"/>
        </g>
        <path d="m237.29 192.27a3.191 3.1966 0 0 1-3.1345 3.1961 3.191 3.1966 0 0 1-3.2455-3.0829 3.191 3.1966 0 0 1 3.0194-3.3054 3.191 3.1966 0 0 1 3.3525 2.9657l-3.183 0.22638z"
              stroke-width="11.618"/>
        <path d="m233.36 9.076c-17.558 26.624-19.295 47.865 0.60178 70.763 23.791 21.722 14.046 43.571 0 65.437"
              stroke-width="18"/>
        <path d="m156.35 44.459c-18.542 20.897-20.377 37.569 0.6355 55.542 25.124 17.049 14.833 34.199 0 51.362"
              stroke-width="16.388"/>
        <path d="m309.71 44.459c-18.542 20.897-20.377 37.569 0.6355 55.542 25.124 17.049 14.833 34.199 0 51.362"
              stroke-width="16.388"/>
    </g>
</svg>
