<svg version="1.1" viewBox="0 0 546.13 546.13" xmlns="http://www.w3.org/2000/svg">
 <g fill="none" stroke="#050505" stroke-linejoin="round" stroke-width="18">
  <path d="m203.75 534.08c55.424 7.1416 108.65 7.6577 153.58-16.83l33.483-444.2c-78.514 25.248-224.25 28.136-271.01-2.3238l15.972 227.09"/>
  <path d="m381.56 191.35c-41.326-38.617-226.23-33.071-250.05-0.54139 42.928 32.109 210.36 28.697 250.05 0.54139z"/>
  <path d="m119.86 72.347c-5.2237-39.262 282.71-31.745 271.14-0.40826"/>
  <path d="m362.62 9h-64.242v199.06m0 25.276v194.21"/>
  <path d="m361.27 516.22c-32.795-24.647-98.195-22.081-144.26-23.521-33.318 10.066-74.143-6.5988-110.77-38.783-73.803-80.848-67.397-113.9-39.44-134.13 33.816-9.2802 73.509 3.7823 122.16 50.901 44.746 56.151 45.079 92.239 33.726 123.05"/>
  <path d="m56.798 325.66 166.19 166.19"/>
  <path d="m64.543 406.24h146.85"/>
  <path d="m138.83 331.54v143.43"/>
  <path d="m61.091 322.72c-40.385 40.821-68.149 89.366-41.8 171.03-5.1784 8.1491-5.3016 17.307-0.17277 27.514 13.674 8.604 23.354 5.9165 33.209 3.7232 64.311 25.661 118.19 4.8177 168.19-33.379"/>
 </g>
</svg>
