<svg version="1.1" viewBox="0 0 241.64 559.2" xmlns="http://www.w3.org/2000/svg">
    <g transform="translate(4.0127 3.9868)" fill="none" stroke="#050505" stroke-linecap="round" stroke-width="18">
        <path d="m50.188 482.96h130.13"/>
        <path d="m52.321 431.76h129.07"/>
        <path d="m103.52 380.56h57.6"/>
        <path d="m52.321 380.56h9.6"/>
        <path d="m52.321 329.36h120.53"/>
        <path d="m172.85 317.62c0.18667 2.3573 0.10987 6.0907 1.6672 9.2 1.5712 3.136 5.4443 5.8528 7.6533 10.001 8.2752 15.543 16.903 37.52 23.53 54.399 1.8496 4.7104 5.1691 15.259 6.6368 19.2 3.1808 8.5451 7.0251 9.4944 9.5797 11.733"/>
        <path d="m146.19 277.09c3.6128 1.2864 5.1691 2.6592 8.5333 7.4667"/>
        <path d="m160.05 226.96h21.333"/>
        <path d="m115.25 222.69c1.4805 1.5957 3.0144 2.5632 5.4432 7.4688 1.0059 2.0331 3.3237 6.1963 4.8683 8.5312 4.9824 7.5317 12.829 17.554 16.291 25.6 1.4624 3.3995 2.4064 6.8352 1.9104 9.5371-1.0571 5.7728-6.2987 4.3296-13.58 4.3296h-77.867"/>
        <path d="m113.12 221.62c-2.1952 2.0299-3.3952 4.3872-8.5333 5.1755-8.5045 1.3045-38.983 0.15786-52.267 0.15786"/>
        <path d="m71.521 172.56c-3.6491 1.9477-6.496 0.8416-19.2 3.2"/>
        <path d="m136.59 135.22c-0.54187 12.628-3.7515 14.131-5.3333 16"/>
        <path d="m193.12 122.42c-1.6875 7.0379-8.3872 15.095-17.152 25.6-3.2171 3.8549-8.4779 9.6437-10.353 13.867-2.2336 5.0283-2.3851 7.1755-3.4283 9.6"/>
        <path d="m107.79 120.29c1.6725 6.6325 8.8747 19.633 12.698 24.306 2.4341 2.9739 6.9483 3.7963 10.141 7.9211 2.0693 2.6731 2.1152 5.0763 2.384 6.1728 1.0581 4.3179 1.9701 13.854 7.1349 19.765 1.2917 1.4795 2.6027 2.4981 3.9093 3.7013"/>
        <path d="m18.188 97.891c1.9264 2.1613 3.2875 3.2478 5.696 8.5333 1.6971 3.7216 13.676 18.57 17.812 22.16 3.2149 2.7915 5.4507 3.5189 9.5584 4.5067"/>
        <path d="m157.92 75.491c-4.3328 2.6933-13.045 6.1034-17.067 20.267"/>
        <path d="m83.254 64.825c1.4901 1.7921 2.7125 3.6348 6.4437 6.7588 4.5803 3.8345 11.011 10.554 14.078 16.708 4.3467 8.7197 7.2565 22.633 2.9152 28.279-3.7291 4.8512-10.503 0.44693-17.037 0.5248-3.0325 0.0363-5.4848 0.27307-8.5333 1.3216-9.8112 3.3749-23.12 6.3339-28.06 13.835-2.0704 3.1424-0.4992 7.3888 1.056 10.439 2.3605 4.6283 11.203 13.738 13.609 18.133 2.2507 4.1131 1.7237 6.7264 4.0928 10.427 2.1547 3.3675 7.0805 4.3328 10.022 7.0603 5.5317 5.1275 20.176 25.538 24.522 32.646 3.9349 6.4352 1.9467 9.0901 7.8453 9.9979 2.1931 0.33813 3.8421-1.1499 4.2304-1.4091 2.0629-1.3728 3.8624-2.0949 7.9317-7.5424 3.6235-4.8512 11.86-15.382 14.229-20.246 1.3984-2.8715 1.5904-6.3701 4.0555-9.3077 2.5845-3.0784 4.0309-3.0795 7.9328-5.1723 3.5136-1.8837 5.4795-3.2843 9.6-3.3131 3.1168-0.0213 5.1819 0.63253 7.4667 0.7072 3.4229 0.112 7.4432 0.28907 11.733 1.0859"/>
        <path d="m28.854 76.558c-0.88746-1.6551-1.744-2.874-2.5813-8.5333-0.78187-5.2889-1.9243-16.983 1.4485-22.285 6.3861-10.036 23.34-5.8443 32.062-12.31 8.9376-6.6253 10.564-21.944 20.314-26.932 11.332-5.7985 23.884 6.8586 35.157 7.8436 12.187 1.0649 22.229-10.548 34.133-9.0436 13.075 1.6522 15.23 22.307 25.601 28.873 9.0336 5.7202 22.786 1.8921 30.47 10.627 8.1152 9.225-0.93653 32.689 6.2539 42.427 3.9669 5.3722 5.9115 6.3858 8.0747 8.2567 0.41174 0.35595 1.5808 1.1779 3.1797 2.4099 2.1707 1.6735 3.2341 2.6792 3.6437 3.3374 1.1712 1.884 1.6992 4.0749 1.7099 9.4626 9e-3 4.0373 0 10.468 0 14.933v280.53c-1e-3 9.6629-1.5467 11.277-2.8373 13.867-0.4736 0.94826-1.3163 1.7856-1.4368 5.3333-0.12373 3.6533 1.4507 15.937 1.8368 19.2 1.2587 10.663 1.8912 22.633 2.3957 34.133 0.14186 3.2395 0.0416 5.1776 0.0416 8.5333 0 12.859 1.8784 29.073-7.9392 39.146-56.833 26.262-142.17 23.974-197.93 6.0405-5.0571-1.7099-10.236-6.5269-12.953-11.053-4.8736-8.1195-4.1109-20.338-4.1141-29.867v-361.6c0-9.4112-1.0379-20.206 0.3392-25.595 0.7456-2.9193 2.5141-4.6204 10.326-6.7395 5.7408-1.5571 7.3493-5.5339 9.0901-9.2658 2.0309-4.3538 1.8368-9.2849 5.1008-11.9 3.9296-3.1488 4.8501-1.8196 9.2768-3.8321 4.1845-1.9026 10.841-5.6199 16-6.9235 4.1344-1.0445 12.265-0.81067 16-0.81067 3.5808 0 5.3824 0.81184 9.4848-0.33909 3.0016-0.84213 5.648-7.0707 8.7637-9.4206 7.7525-5.8478 24.459-7.797 34.018-7.2609 10.347 0.58027 24.489 7.9504 30.475 15.958 2.8939 3.8708 2.3616 7.0108 4.2059 10.243 1.2597 2.2071 3.4528 2.9699 4.8064 3.5506 2.8555 1.224 6.3477 2.3089 9.1637 5.5177 6.1611 7.0211 11.978 23.344 16.198 30.816 1.5275 2.704 2.1984 4.2165 4.5963 5.2576 3.1403 1.3632 6.5067-0.66453 8.3253-1.8848 2.7744-1.8603 7.0496-7.0891 9.7003-9.7707 5.8837-5.9549 7.712-7.7159 9.5957-9.6"/>
    </g>
</svg>
